<svg id="Layer_1" width="220" height="235" data-name="Layer 1" xmlns="http://www.w3.org/2000/svg" xmlns:xlink="http://www.w3.org/1999/xlink" viewBox="0 0 220 235"><defs><style>.cls-1{stroke:#fbf4a0;stroke-miterlimit:10;stroke-width:0.12px;fill:url(#New_Gradient_Swatch_1);}.cls-2{fill:url(#linear-gradient);}</style><linearGradient id="New_Gradient_Swatch_1" x1="185.66" y1="77.33" x2="36.09" y2="163.68" gradientUnits="userSpaceOnUse"><stop offset="0" stop-color="#00a4df"/><stop offset="0.07" stop-color="#00baf2"/><stop offset="0.18" stop-color="#00bff3"/><stop offset="0.18" stop-color="#00bff3"/><stop offset="0.22" stop-color="#05c0f3"/><stop offset="0.27" stop-color="#12c1f2"/><stop offset="0.31" stop-color="#29c4f0"/><stop offset="0.36" stop-color="#49c8ed"/><stop offset="0.37" stop-color="#4dc8ed"/><stop offset="0.38" stop-color="#4ac5ec"/><stop offset="0.59" stop-color="#229ed5"/><stop offset="0.76" stop-color="#0986c7"/><stop offset="0.86" stop-color="#007dc2"/></linearGradient><linearGradient id="linear-gradient" x1="65.95" y1="194.28" x2="152.3" y2="44.71" gradientUnits="userSpaceOnUse"><stop offset="0" stop-color="#f2623e"/><stop offset="0.03" stop-color="#f58d5b"/><stop offset="0.07" stop-color="#f7b273"/><stop offset="0.1" stop-color="#f9cf87"/><stop offset="0.14" stop-color="#fae395"/><stop offset="0.17" stop-color="#fbf09d"/><stop offset="0.2" stop-color="#fbf4a0"/><stop offset="0.25" stop-color="#f6f2a0"/><stop offset="0.3" stop-color="#e9ed9f"/><stop offset="0.36" stop-color="#d2e49f"/><stop offset="0.39" stop-color="#c2de9e"/><stop offset="0.44" stop-color="#bddc9d"/><stop offset="0.49" stop-color="#b0d69a"/><stop offset="0.55" stop-color="#99cb95"/><stop offset="0.61" stop-color="#7abd8f"/><stop offset="0.63" stop-color="#73bc8f"/><stop offset="0.75" stop-color="#42b18c"/><stop offset="0.86" stop-color="#1ea98a"/><stop offset="0.94" stop-color="#08a588"/><stop offset="1" stop-color="#00a388"/></linearGradient></defs><title>Untitled-1</title><path class="cls-1" d="M110.87,34.16a86.34,86.34,0,1,0,86.34,86.34A86.35,86.35,0,0,0,110.87,34.16Zm0,163.6A77.17,77.17,0,0,1,63.44,59.66C58.93,73.77,56.79,96.85,71,106.81c24,16.86,38.82,17,37.18,26s-2.58,21.79,7.18,27.45-8.56,28.68-4.4,28.9c18,1,45.73-19.31,49.65-27.88s13.58-19.69,4.61-22.65S138,128.46,131,121.38s-13.11-.3-18.29-1.33-21.18-6.8-19.63-10,2.13-6.73-1.5-6.34-13.85,9.82-9.43-10.21,18,.34,20.1,3.44,3-14.23,12.22-18.81S137.14,69,132.85,64.72,115,53.23,115.29,48.67a27.93,27.93,0,0,0-.7-5.2,77.19,77.19,0,0,1-3.72,154.29Z"/><path class="cls-2" d="M109.13,33.15a86.34,86.34,0,1,0,86.34,86.34A86.35,86.35,0,0,0,109.13,33.15Zm0,163.6A77.17,77.17,0,0,1,61.69,58.65C57.18,72.76,55,95.84,69.24,105.8c24,16.86,38.82,17,37.18,26s-2.58,21.79,7.18,27.45-8.56,28.68-4.4,28.9c18,1,45.73-19.31,49.65-27.88s13.58-19.69,4.61-22.65-27.18-10.19-34.21-17.27-13.11-.3-18.29-1.33-21.18-6.8-19.63-10,2.13-6.73-1.5-6.34S76,112.54,80.41,92.52s18,.34,20.1,3.44,3-14.23,12.22-18.81S135.39,68,131.1,63.71s-17.88-11.49-17.56-16.05a27.93,27.93,0,0,0-.7-5.2,77.19,77.19,0,0,1-3.72,154.29Z"/></svg>