<svg id="Layer_1" data-name="Layer 1" xmlns="http://www.w3.org/2000/svg" xmlns:xlink="http://www.w3.org/1999/xlink" viewBox="0 0 2000 2000"><defs><style>.cls-1{stroke:#fbf4a0;stroke-miterlimit:10;stroke-width:0.62px;fill:url(#New_Gradient_Swatch_1);}.cls-2{fill:url(#linear-gradient);}</style><linearGradient id="New_Gradient_Swatch_1" x1="1398.2" y1="787.41" x2="653.04" y2="1217.63" gradientUnits="userSpaceOnUse"><stop offset="0" stop-color="#00a4df"/><stop offset="0.07" stop-color="#00baf2"/><stop offset="0.18" stop-color="#00bff3"/><stop offset="0.18" stop-color="#00bff3"/><stop offset="0.22" stop-color="#05c0f3"/><stop offset="0.27" stop-color="#12c1f2"/><stop offset="0.31" stop-color="#29c4f0"/><stop offset="0.36" stop-color="#49c8ed"/><stop offset="0.37" stop-color="#4dc8ed"/><stop offset="0.38" stop-color="#4ac5ec"/><stop offset="0.59" stop-color="#229ed5"/><stop offset="0.76" stop-color="#0986c7"/><stop offset="0.86" stop-color="#007dc2"/></linearGradient><linearGradient id="linear-gradient" x1="801.8" y1="1370.06" x2="1232.02" y2="624.9" gradientUnits="userSpaceOnUse"><stop offset="0" stop-color="#f2623e"/><stop offset="0.03" stop-color="#f58d5b"/><stop offset="0.07" stop-color="#f7b273"/><stop offset="0.1" stop-color="#f9cf87"/><stop offset="0.14" stop-color="#fae395"/><stop offset="0.17" stop-color="#fbf09d"/><stop offset="0.2" stop-color="#fbf4a0"/><stop offset="0.25" stop-color="#f6f2a0"/><stop offset="0.3" stop-color="#e9ed9f"/><stop offset="0.36" stop-color="#d2e49f"/><stop offset="0.39" stop-color="#c2de9e"/><stop offset="0.44" stop-color="#bddc9d"/><stop offset="0.49" stop-color="#b0d69a"/><stop offset="0.55" stop-color="#99cb95"/><stop offset="0.61" stop-color="#7abd8f"/><stop offset="0.63" stop-color="#73bc8f"/><stop offset="0.75" stop-color="#42b18c"/><stop offset="0.86" stop-color="#1ea98a"/><stop offset="0.94" stop-color="#08a588"/><stop offset="1" stop-color="#00a388"/></linearGradient></defs><title>Artboard 13</title><path class="cls-1" d="M1025.62,572.37C788,572.37,595.47,765,595.47,1002.52S788,1432.67,1025.62,1432.67s430.15-192.62,430.15-430.15S1263.2,572.37,1025.62,572.37Zm0,815c-212.27,0-384.87-172.65-384.87-384.87,0-123.11,58.36-232.69,148.56-303.14-22.46,70.32-33.14,185.28,37.63,234.91,119.81,84,193.39,84.45,185.24,129.64s-12.86,108.58,35.77,136.74-42.65,142.9-21.92,144c89.61,4.94,227.8-96.22,247.36-138.92s67.65-98.08,23-112.83-135.38-50.76-170.43-86-65.29-1.49-91.1-6.61S929.31,966.4,937,950.55,947.6,917,929.54,919s-69,48.9-47-50.85,89.79,1.67,100.11,17.16,15-70.91,60.86-93.73,113-45.73,91.6-67-89.06-57.23-87.48-80c.18-2.49-1.18-16.71-3.49-25.9,203.57,9.73,366.35,177.95,366.35,383.92C1410.49,1214.79,1237.89,1387.39,1025.62,1387.39Z"/><path class="cls-2" d="M1016.91,567.33c-237.58,0-430.15,192.62-430.15,430.15s192.57,430.15,430.15,430.15S1447.06,1235,1447.06,997.48,1254.49,567.33,1016.91,567.33Zm0,815C804.64,1382.35,632,1209.7,632,997.48c0-123.11,58.36-232.69,148.56-303.14-22.46,70.32-33.14,185.28,37.63,234.91,119.81,84,193.39,84.45,185.24,129.64s-12.86,108.58,35.77,136.74-42.65,142.9-21.92,144c89.61,4.94,227.8-96.22,247.36-138.92s67.65-98.08,23-112.83-135.38-50.76-170.43-86-65.29-1.49-91.1-6.61-105.5-33.87-97.8-49.72,10.6-33.51-7.47-31.56-69,48.9-47-50.85,89.79,1.67,100.11,17.16,15-70.91,60.86-93.73,113-45.73,91.6-67-89.06-57.23-87.48-80c.18-2.49-1.18-16.71-3.49-25.9,203.57,9.73,366.35,177.95,366.35,383.92C1401.78,1209.75,1229.18,1382.35,1016.91,1382.35Z"/></svg>