<svg id="Layer_1" data-name="Layer 1" xmlns="http://www.w3.org/2000/svg" viewBox="0 0 30.74 30.72"><defs><style>.cls-1,.cls-2{fill:none;stroke:#fff;stroke-linecap:round;stroke-miterlimit:10;stroke-width:.25px}.cls-2{fill:#c14b2f}</style></defs><title>earth</title><path class="cls-1" d="M30.23 11.84c-.45.35-.79-.6-.56-.84a.26.26 0 0 1 .16-.09.16.16 0 0 1 .17-.11 16.31 16.31 0 0 0-.83-1.8c-.41.61-1.38.2-1.7-.3-.59-.94.74-.56 1.12-.57h.12a14.23 14.23 0 0 0-.89-1.3.76.76 0 0 1 0 .47c-.1.51-1.05.52-1.45.62-.57.16-1.32.42-1.55 1-.1.26 0 .54-.29.73-.81.58-1.8-1.19-1.94-1.77s.36-.89 0-1.53a2.19 2.19 0 0 0-1.47-1.13c-.41-.06-.63 0-.79-.45-.34-.91 1-.58 1-.73 0-.53.9-.46 1.25-.45s1.81.2 1.81.2a.32.32 0 0 1 .13-.15 14.5 14.5 0 0 0-5.06-2.29 15.09 15.09 0 0 0-12.91 3 14.9 14.9 0 0 0-2 21A15.19 15.19 0 0 0 21.11 30a14.89 14.89 0 0 0 8.12-7.23c.36-.7 1.57-2.71 1-3.47a4.21 4.21 0 0 1-1-3c.14-.56.72-.87.93-1.4s-.25-.9-.16-1.4a1.56 1.56 0 0 1 .59-.68c.2-.1-.47-.82-.36-.98zM26.87 22.6l-.06.09c-.33.55-.23 1.29-.64 1.79s-.92.37-1.2.8c-.15.22-.1.49-.21.72a2.47 2.47 0 0 1-.53.63 4.91 4.91 0 0 0-.48.43 1.71 1.71 0 0 1-.42.47c-.17.1-.38.11-.54.24a.8.8 0 0 0-.41.61.65.65 0 0 0 0 .34c.11.23.65.26.26.51a2.33 2.33 0 0 1-1.45.1.91.91 0 0 1-.46-.23 4 4 0 0 1-.22-.47c-.57-.2-.35-.69-.33-1.1s-.14-.59-.14-.89.06-.65-.17-.88-.72-.12-1.05-.21c-.53-.14-.7-.76-1.18-1s-.73-.27-.76-.89a1.59 1.59 0 0 1 .38-1c.13-.22.38-.62-.05-.68-.21 0-.48.12-.72.12a2 2 0 0 1-.8-.26 2.62 2.62 0 0 0-.82-.31c-.31-.06-.63 0-.95-.07a2.17 2.17 0 0 0-.8-.09 3 3 0 0 1-1.9-.13 11.8 11.8 0 0 1-1-1c-.72 1.16-2-1.09-2.48-1.56a3 3 0 0 1-1.06-2c0-.59.64-1.83.38-2.32-.11-.2-.46-.16-.59-.36-.49-.73-.25-2.49-1.53-2.55a1.14 1.14 0 0 0-1 .8c-.08.2-1 2.5-1.32 1.94-.1-.16.11-.64.14-.8a4.18 4.18 0 0 0 0-1 13.39 13.39 0 0 1 .18-2 5.42 5.42 0 0 1 1.81-3.5c.35-.37.59-.31 1-.19a14.2 14.2 0 0 1 1.47.36c.9.34 1.85-.45 2.79-.33A15 15 0 0 0 12 7a11.13 11.13 0 0 1 2 0c.79.15.77-.11 1.11-.73.42-.78.53-.12 1 .25s.53.12 1 0c.8-.15.92.68.38 1.14a4.62 4.62 0 0 1-.94.41 1.37 1.37 0 0 0-.54.41c-.25.29-.67.34-.94.66s-.94.45-.87.86c.09.56 1.14.67 1.54.77a5.53 5.53 0 0 0 .86.31c.71.05.75-.68.76-1.21s.16-1 .83-1.1 1.08.67 1.81.72a1.65 1.65 0 0 1 1 .21c.34.21.48.76.84 1 .19.14.47.26.49.53.06.87-1.33.66-1.78.9-.26.14-.17.75.18.67a.37.37 0 0 1 .48.23.14.14 0 0 1 0 .06c.21.86-1.89.55-2.05.77s0 .45-.37.7a2.73 2.73 0 0 0-.86.76c-.21.3-.23.68-.49 1s-.87.56-.81 1.13c0 .31.39.61.29.94-.18.65-.66.23-1-.07s-.74-.75-1.32-.47c-.2.1-.16.24-.28.39-.29.38-.74 0-1.12.16-.75.34-.8 2.37.35 1.92.1 0 .34-.12.36-.25.1-.64.67-.7 1.21-.91a.27.27 0 0 1 .23.06.43.43 0 0 1 0 .58 1.19 1.19 0 0 0-.21.52c0 .09-.16.14-.12.2.18.28.7-.36 1-.18s.27.45.34.68.17.38.45.33c0 0 1-.05.87-.12-.45-.21.61-.74 1.09-.87a6.74 6.74 0 0 1 1.27 0c.38 0 .73-.3 1.12-.28s.8.38 1.25.41a6.14 6.14 0 0 1 1.05 0c.41.11.49.6.88.75s.94-.1 1.38-.11 1.21 0 1.45.47a1.08 1.08 0 0 1-.3 1z" transform="translate(-.62 -.62)"/><path class="cls-2" d="M25.68 21.24c-.44 0-.95.27-1.38.11s-.47-.64-.88-.75a6.14 6.14 0 0 0-1.05 0c-.45 0-.82-.39-1.25-.41s-.74.24-1.12.28a6.74 6.74 0 0 0-1.27 0c-.48.13-1.54.66-1.09.87.15.07-.83.11-.87.12-.28.05-.36-.05-.45-.33s-.1-.55-.34-.68-.85.46-1 .18c0-.06.1-.11.12-.2a1.19 1.19 0 0 1 .21-.52.43.43 0 0 0 0-.58.27.27 0 0 0-.23-.06c-.54.21-1.11.27-1.21.91 0 .13-.26.21-.36.25-1.15.45-1.1-1.58-.35-1.92.38-.17.83.22 1.12-.16.12-.15.08-.29.28-.39.58-.28 1 .11 1.32.47s.78.72 1 .07c.1-.33-.25-.63-.29-.94-.06-.57.48-.78.81-1.13s.28-.66.49-1a2.73 2.73 0 0 1 .86-.76c.33-.25.17-.45.37-.7s2.26.09 2.05-.77a.39.39 0 0 0-.44-.31h-.06c-.35.08-.44-.53-.18-.67.45-.24 1.84 0 1.78-.9 0-.27-.3-.39-.49-.53-.36-.27-.5-.75-.84-1s-.58-.19-1-.21c-.73 0-1-.9-1.81-.72s-.83.47-.83 1.1-.05 1.26-.76 1.21a5.53 5.53 0 0 1-.86-.31c-.4-.1-1.45-.21-1.54-.77-.07-.41.6-.56.87-.86s.69-.37.94-.66a1.37 1.37 0 0 1 .54-.41 4.62 4.62 0 0 0 .94-.41c.54-.46.42-1.29-.38-1.14-.43.09-.56.3-1 0s-.55-1-1-.25-.32.88-1.11.73a11.13 11.13 0 0 0-2 0 15.16 15.16 0 0 1-1.88-.35c-.94-.12-1.89.67-2.79.33-.51-.19-1-.22-1.47-.36s-.69-.18-1 .19A5.4 5.4 0 0 0 3 10.31a13.39 13.39 0 0 0-.18 2 4.18 4.18 0 0 1 0 1c0 .16-.24.64-.14.8.32.62 1.2-1.68 1.32-1.88a1.14 1.14 0 0 1 1-.8c1.27.06 1 1.82 1.52 2.55.13.2.48.16.59.36.26.49-.41 1.73-.38 2.32a3 3 0 0 0 1.06 2c.5.47 1.76 2.72 2.48 1.56a11.8 11.8 0 0 0 1 1 3 3 0 0 0 1.9.13 1.86 1.86 0 0 1 .81.09c.31.06.63 0 .94.07a2.62 2.62 0 0 1 .82.31 1.93 1.93 0 0 0 .81.26c.23 0 .5-.16.71-.12.43.06.19.46 0 .68a1.65 1.65 0 0 0-.38 1c0 .62.26.66.76.89s.65.83 1.18 1c.33.09.79-.06 1.05.21s.18.59.17.88.16.61.14.89-.24.9.33 1.1a3.07 3.07 0 0 0 .22.47.91.91 0 0 0 .46.23 2.33 2.33 0 0 0 1.45-.1c.39-.25-.15-.28-.26-.51a.65.65 0 0 1 0-.34.85.85 0 0 1 .41-.61c.16-.13.37-.14.54-.24a1.71 1.71 0 0 0 .47-.51 4.91 4.91 0 0 1 .48-.43 2.47 2.47 0 0 0 .53-.63c.11-.23.07-.5.21-.72.28-.43.89-.43 1.2-.8s.31-1.24.64-1.79l.06-.09c.2-.27.43-.54.26-.89s-1.03-.43-1.5-.41zM3 12.68zm5.71 6.69z" transform="translate(-.62 -.62)"/><path class="cls-2" d="M21.23 1.65A15.51 15.51 0 0 0 9 2.45a15.18 15.18 0 0 0-7.77 9.77 15.41 15.41 0 0 0 2.17 12.4 15.56 15.56 0 0 0 10.42 6.44A15.17 15.17 0 0 0 25.38 28a15.35 15.35 0 0 0 5.8-10.49 15.5 15.5 0 0 0-9.95-15.86zM29.86 13a1.48 1.48 0 0 0-.56.65c0 .54.52.79.28 1.38s-.75.8-.89 1.33a4 4 0 0 0 1 2.86c.5.73-.65 2.65-1 3.31a14.16 14.16 0 0 1-7.82 6.89A14.48 14.48 0 0 1 8.29 28 14.22 14.22 0 0 1 7 5.08a14.41 14.41 0 0 1 12.28-2.86 14.18 14.18 0 0 1 4.83 2.19.37.37 0 0 0-.13.15s-1.53-.18-1.72-.19-1.18-.08-1.2.42c0 .15-1.23-.17-.9.7.15.4.36.37.76.43A2.06 2.06 0 0 1 22.31 7c.34.6-.15.87 0 1.46s1.08 2.24 1.85 1.68c.25-.18.18-.44.28-.69.22-.58.95-.83 1.48-1 .38-.09 1.28-.1 1.38-.59a.82.82 0 0 0 0-.44 12.82 12.82 0 0 1 .85 1.23H28c-.36 0-1.63-.35-1.06.55.3.48 1.23.86 1.62.28a14.36 14.36 0 0 1 .79 1.52.15.15 0 0 0-.12.11.25.25 0 0 0-.16.08c-.22.23.11 1.14.54.8-.15.23.49.88.25 1.01z" transform="translate(-.62 -.62)"/></svg>