<svg id="Layer_1" data-name="Layer 1" xmlns="http://www.w3.org/2000/svg" viewBox="0 0 30.97 30.78"><defs><style>.cls-1,.cls-2{fill:none;stroke:#fff;stroke-linecap:round;stroke-miterlimit:10;stroke-width:.4px}.cls-2{fill:#c14b2f}</style></defs><title>heart</title><path class="cls-1" d="M12.31 25h9.84l5-5 2.87-4.56a.27.27 0 0 0 0-.26.26.26 0 0 0-.23-.13h-1.5a2.84 2.84 0 0 0-2.69 1.93l-.09.27-2.36.75a2.39 2.39 0 0 1 .59 1.58A2.44 2.44 0 0 1 21.3 22h-5.8v-4.1A6.13 6.13 0 0 0 9 19l-1.5 1.36zm.5 2.14L11.67 26l-5.43-5.26-1.13-1-2.73 2.87 7.57 7zM6 24.05a1 1 0 1 1 1-1 1 1 0 0 1-1 1z" transform="translate(-.47 -.68)"/><path class="cls-2" d="M18.24 15l.06-.05.06.05 6.4-6.39a4.53 4.53 0 0 0-6.4-6.4l-.06.06-.06-.06a4.53 4.53 0 0 0-6.4 6.4zm-.81-12l.06.06.81.81.81-.81.06-.06A3.38 3.38 0 1 1 24 7.79l-5.59 5.59-.06-.06-.06.06-5.64-5.59A3.38 3.38 0 1 1 17.43 3zm-2.97 24.21l-1-1.08h9.2l5.43-5.4L31 16a1.4 1.4 0 0 0-1.19-2.14h-1.5a4 4 0 0 0-3.67 2.43l-2.57.86h-5.39a7.51 7.51 0 0 0-8.5 1l-1.56 1.4L5 18.14.76 22.66l9.17 8.53zM9 19a6.13 6.13 0 0 1 6.5-1.1v.4h5.8a1.3 1.3 0 1 1 0 2.6h-5.8V22h5.8a2.44 2.44 0 0 0 2.44-2.44 2.39 2.39 0 0 0-.59-1.56l2.41-.81.09-.27A2.84 2.84 0 0 1 28.34 15h1.5a.26.26 0 0 1 .23.13.27.27 0 0 1 0 .26L27.19 20l-5 5h-9.88l-4.85-4.67zm-3.85.76l1.13 1L11.67 26l1.14 1.18L10 29.65l-7.57-7z" transform="translate(-.47 -.68)"/><circle class="cls-2" cx="5.51" cy="22.37" r="1"/></svg>