<svg id="Layer_1" data-name="Layer 1" xmlns="http://www.w3.org/2000/svg" viewBox="0 0 30.97 30.78"><defs><style>.cls-1{fill:none;}.cls-1,.cls-2{stroke:#fff;stroke-linecap:round;stroke-miterlimit:10;stroke-width:0.4px;}.cls-2{fill:#c14b2f;}</style></defs><title>heart</title><path class="cls-1" d="M12.31,25h9.84l5-5,2.87-4.56a.27.27,0,0,0,0-.26.26.26,0,0,0-.23-.13h-1.5a2.84,2.84,0,0,0-2.69,1.93l-.09.27L23.15,18a2.39,2.39,0,0,1,.59,1.58A2.44,2.44,0,0,1,21.3,22H15.5V20.9h0V18.3h0v-.4A6.13,6.13,0,0,0,9,19l-1.5,1.36Z" transform="translate(-0.47 -0.68)"/><path class="cls-1" d="M12.81,27.14,11.67,26,6.24,20.74l-1.13-1L2.38,22.61l7.57,7ZM6,24.05a1,1,0,1,1,1-1A1,1,0,0,1,6,24.05Z" transform="translate(-0.47 -0.68)"/><path class="cls-2" d="M18.24,15l.06-.05.06.05,6.4-6.39a4.53,4.53,0,0,0-6.4-6.4l-.06.06-.06-.06a4.53,4.53,0,0,0-6.4,6.4ZM17.43,3l.06.06.81.81.81-.81L19.17,3A3.38,3.38,0,1,1,24,7.79l-5.59,5.59-.06-.06-.06.06L12.65,7.79A3.38,3.38,0,1,1,17.43,3Z" transform="translate(-0.47 -0.68)"/><path class="cls-2" d="M14.46,27.21l-1-1.08h9.2l5.43-5.4L31,16a1.4,1.4,0,0,0-1.19-2.14h-1.5a4,4,0,0,0-3.67,2.43l-2.57.86H16.68a7.51,7.51,0,0,0-8.5,1L6.62,19.55,5,18.14.76,22.66l9.17,8.53ZM9,19A6.13,6.13,0,0,1,15.5,17.9v.4h5.8a1.3,1.3,0,1,1,0,2.6H15.5V22h5.8a2.44,2.44,0,0,0,2.44-2.44A2.39,2.39,0,0,0,23.15,18l2.41-.81.09-.27A2.84,2.84,0,0,1,28.34,15h1.5a.26.26,0,0,1,.23.13.27.27,0,0,1,0,.26L27.19,20l-5,5H12.31L7.46,20.33Zm-3.85.76,1.13,1L11.67,26l1.14,1.18L10,29.65l-7.57-7Z" transform="translate(-0.47 -0.68)"/><circle class="cls-2" cx="5.51" cy="22.37" r="1"/></svg>