<svg id="Layer_1" data-name="Layer 1" xmlns="http://www.w3.org/2000/svg" viewBox="0 0 180 180"><defs><style>.cls-1{fill:#f9f7f7;}.cls-2{fill:none;}</style></defs><title>KAlogo2</title><path class="cls-1" d="M158.29,7.54v13c-.31-.32-.61-.64-.93-.95a41,41,0,0,0-58,58,41,41,0,0,0,58,0c.32-.31.62-.63.93-.95v13.9h24.05V7.54ZM178.87,87H161.76V11h17.11Zm-50.48-1a37.5,37.5,0,0,1-26.52-64,37.52,37.52,0,0,1,53,0,38.64,38.64,0,0,1,3.38,3.88V71.16A38.64,38.64,0,0,1,154.91,75a37.29,37.29,0,0,1-26.52,11" transform="translate(-9 -4)"/><path class="cls-1" d="M90.82,7.06H15.7V90H90.85L65,48.84ZM19.17,86.49V10.54H84.58L60.87,48.85,84.56,86.49Z" transform="translate(-9 -4)"/><rect class="cls-2" width="180" height="180"/></svg>