<svg width="220" height="235" viewBox="0 0 220 235" xmlns="http://www.w3.org/2000/svg" xmlns:xlink="http://www.w3.org/1999/xlink"><title>step3-4</title><defs><rect id="b" x="24" y="120" width="200" height="40" rx="3"/><filter x="-50%" y="-50%" width="200%" height="200%" filterUnits="objectBoundingBox" id="a"><feOffset dy="4" in="SourceAlpha" result="shadowOffsetOuter1"/><feGaussianBlur stdDeviation="4" in="shadowOffsetOuter1" result="shadowBlurOuter1"/><feColorMatrix values="0 0 0 0 0 0 0 0 0 0 0 0 0 0 0 0 0 0 0.2 0" in="shadowBlurOuter1"/></filter><path d="M142.031 52.951c-8.188.704-15.771 1.86-20.216 6.301-1.128 1.132-2.067 2.362-2.915 3.625a22.32 22.32 0 0 0-1.869 3.359c-.095.21-.192.422-.281.633-.083.202-.19.397-.266.6-.147.388-.27.776-.392 1.168a20.963 20.963 0 0 0-.483 1.762c-.098.455-.184.926-.254 1.41-.012.088-.015.174-.027.26-.377 2.75-.215 5.478.611 7.968.175.526.438 1.012.664 1.514.184.4.321.823.538 1.208.01-.021.031-.052.043-.073.034-.07.095-.16.138-.239.058-.1.107-.198.183-.315a9.9 9.9 0 0 1 .854-1.107c.248-.284.905-1.135 1.343-1.673.08-.095.165-.202.223-.27.382-.483.844-1.11 1.33-1.682.955-1.168 2.084-1.96 3.374-3.346.649-.691.94-1.016 1.668-1.704.71-.697 2.064-1.832 2.832-2.493.395-.324.722-.596 1.11-.917.398-.316 2.802-1.995 3.197-2.255.81-.48 1.27-.737 2.03-1.135.772-.385 1.815-.948 2.506-1.245.691-.287 1.6-.48 2.169-.69.566-.218 2.328-.313 2.74-.441.833-.242.61.394.61.394s-.417.3-1.148.774l-1.312.847c-.502.343-1.061.725-1.682 1.114l-1.591 1.107c-7.855 5.735-13.318 10.792-18.543 17.035-.648.777-1.3 1.545-1.945 2.361-1.952 2.463-3.91 5.12-6.002 8.1 0 0-.385.437-.397.844-.499 1.028 4.028 1.398 4.665.297.636-1.101 1.957-3.52 4.132-6.378a21.76 21.76 0 0 1 1.7-2.015c.034-.034.071-.08.102-.114 6.931 4.916 17.5 3.463 24.798-3.838 6.744-6.742 9.14-26.49 9.727-32.543a1.048 1.048 0 0 0-1.44-1.08c-2.212.893-6.617 2.364-12.524 2.872zm-27.266 33.797c-5.154 3.16-12.59 1.624-17.423-3.906-4.31-4.925-5.17-18.246-5.341-23.07a1.044 1.044 0 0 1 1.49-.99c1.636.746 4.514 1.844 8.32 2.428 4.468.688 8.647 1.563 11.681 3.475.438.275.578.835.386 1.312-1.046 2.563-1.903 5.99-1.6 9.944a119.504 119.504 0 0 0-1.988-1.893c-.728-.6-1.141-.924-1.833-1.432-.706-.498-1.651-1.214-2.288-1.612-.639-.388-1.508-.715-2.04-1.012-.526-.3-2.251-.664-2.64-.854-.786-.364-.66.3-.66.3s.364.358 1.015.94c.324.287.716.635 1.169 1.033.116.11.266.242.388.355 2.637 2.9 5.433 5.619 8.198 8.271.128.147.257.294.388.44.689.787 2.38 3.264 2.606 3.717l1.123 1.875-.951.68z" id="d"/><filter x="-50%" y="-50%" width="200%" height="200%" filterUnits="objectBoundingBox" id="c"><feOffset dy="4" in="SourceAlpha" result="shadowOffsetOuter1"/><feGaussianBlur stdDeviation="2" in="shadowOffsetOuter1" result="shadowBlurOuter1"/><feColorMatrix values="0 0 0 0 0 0 0 0 0 0 0 0 0 0 0 0 0 0 0.08 0" in="shadowBlurOuter1"/></filter></defs><g transform="translate(-15 20)" fill="none" fill-rule="evenodd"><ellipse fill="#71C045" cx="124" cy="90" rx="90" ry="90"/><use fill="#000" filter="url(#a)" xlink:href="#b"/><use fill="#F8F8F8" xlink:href="#b"/><use fill="#000" filter="url(#c)" xlink:href="#d"/><use fill="#FFF" xlink:href="#d"/><path d="M81.55 135.94h-3.38l-2.4 6.2-2.42-6.2h-3.38L74.13 146h3.26l4.16-10.06zm10.78 5.04c-.06-3.28-2.34-5.32-5.18-5.32-2.92 0-5.32 2.16-5.32 5.32 0 3.18 2.4 5.32 5.3 5.32 2.3 0 4.12-1.02 4.98-3.14l-2.84-.58c-.54.98-1.4 1.16-2.14 1.16-1.08 0-1.9-.74-2.16-1.94h7.36v-.82zm-5.18-2.72c.92 0 1.72.5 2.02 1.58h-4.14a2.2 2.2 0 0 1 2.12-1.58zm17.18-2.3h-3.14v.66c-.72-.62-1.72-.96-3.02-.96-2.62 0-4.84 2.06-4.84 4.84 0 2.84 2.22 4.92 4.84 4.92 1.3 0 2.3-.34 3.02-.96v.28c0 1.58-1.04 2.44-2.5 2.44-1.04 0-1.6-.34-2.36-1.24l-2.66 1.44c.98 1.62 2.74 2.42 5.04 2.42 3.26 0 5.62-1.7 5.62-4.8v-9.04zm-5.48 6.84c-1.4 0-2.4-.96-2.4-2.3 0-1.34 1-2.28 2.4-2.28 1.28 0 2.34.94 2.34 2.28 0 1.34-1.06 2.3-2.34 2.3zm17.66-1.82c-.06-3.28-2.34-5.32-5.18-5.32-2.92 0-5.32 2.16-5.32 5.32 0 3.18 2.4 5.32 5.3 5.32 2.3 0 4.12-1.02 4.98-3.14l-2.84-.58c-.54.98-1.4 1.16-2.14 1.16-1.08 0-1.9-.74-2.16-1.94h7.36v-.82zm-5.18-2.72c.92 0 1.72.5 2.02 1.58h-4.14a2.2 2.2 0 0 1 2.12-1.58zm13.54 4.78c-.42.24-1.02.4-1.46.4-.84 0-1.34-.42-1.34-1.46v-3.48h2.96v-2.54h-2.96V133h-3.2v2.96h-1.82v2.54h1.82v3.8c0 2.64 1.5 4 4 4 1.14 0 1.96-.32 2.74-.74l-.74-2.52zm12.32-7.08h-3.2v.8c-.78-.7-1.82-1.1-3.12-1.1-2.66 0-4.9 2.16-4.9 5.32 0 3.18 2.24 5.32 4.9 5.32 1.3 0 2.34-.4 3.12-1.1v.8h3.2v-10.04zm-5.66 7.62c-1.4 0-2.42-1.04-2.42-2.6 0-1.54 1.02-2.6 2.42-2.6 1.3 0 2.46 1.06 2.46 2.6 0 1.56-1.16 2.6-2.46 2.6zm14.64-7.76c-1.64 0-2.74.86-3.46 2.06v-1.92h-3.2V146h3.2v-3.14c0-2.6 1.22-3.76 3.46-3.76h.58l.14-3.2a2.74 2.74 0 0 0-.72-.08zm3.84-4.64c-1.08 0-1.84.84-1.84 1.82 0 1.02.76 1.78 1.84 1.78s1.86-.76 1.86-1.78c0-.98-.78-1.82-1.86-1.82zm1.6 14.82v-10.04h-3.2V146h3.2zm13.04-10.04h-3.2v.8c-.78-.7-1.82-1.1-3.12-1.1-2.66 0-4.9 2.16-4.9 5.32 0 3.18 2.24 5.32 4.9 5.32 1.3 0 2.34-.4 3.12-1.1v.8h3.2v-10.04zm-5.66 7.62c-1.4 0-2.42-1.04-2.42-2.6 0-1.54 1.02-2.6 2.42-2.6 1.3 0 2.46 1.06 2.46 2.6 0 1.56-1.16 2.6-2.46 2.6zm14.26-7.92c-1.26 0-2.32.46-3.08 1.26v-.96h-3.2V146h3.2v-4.66c0-1.94.82-2.8 2.08-2.8 1.02 0 1.72.8 1.72 1.98V146h3.18v-6.16c0-2.52-1.56-4.18-3.9-4.18z" fill="#71C045"/></g></svg>