<svg width="220" height="235" viewBox="0 0 220 235" xmlns="http://www.w3.org/2000/svg" xmlns:xlink="http://www.w3.org/1999/xlink"><title>step3-1</title><defs><rect id="b" x="24" y="120" width="200" height="40" rx="3"/><filter x="-50%" y="-50%" width="200%" height="200%" filterUnits="objectBoundingBox" id="a"><feOffset dy="4" in="SourceAlpha" result="shadowOffsetOuter1"/><feGaussianBlur stdDeviation="4" in="shadowOffsetOuter1" result="shadowBlurOuter1"/><feColorMatrix values="0 0 0 0 0 0 0 0 0 0 0 0 0 0 0 0 0 0 0.2 0" in="shadowBlurOuter1"/></filter><path d="M151.183 86.855l-.003-.003c-2.603-.003-4.023-1.659-4.023-1.659a1.675 1.675 0 1 1 2.37-2.37l.016.021c.182.165 1.637 1.565 1.64 4.005l.002.003h-.002v.003m-15.85-19.188a3.334 3.334 0 1 1 .001-6.668 3.334 3.334 0 0 1 0 6.668m11.333-5.334c-.024-.226 0-.448 0-.674 0-6.692-4.486-12.326-10.61-14.087 1.076-2.45 1.272-5.539 1.276-9.227l.659-.001c-8.281.01-13.533 4.192-15.327 5.89-1.63-3.066-3.478-4.849-3.868-5.203-2.666-2.682-6.888-2.682-9.492-.079a6.67 6.67 0 0 0 0 9.43s1.526 1.763 4.422 3.467a8.4 8.4 0 0 0-.814.819l-18.927 2.103C92.89 54.893 92 55.891 92 56.997v39.99c0 1.107.786 1.568 1.745 1.036l21.47-11.928c1.624 5.53 6.729 9.572 12.785 9.572 0 0 3.1-.143 6.087.092A11.985 11.985 0 0 0 144 101c6.628 0 12-5.372 12-12 0-3.493-1.501-6.628-3.884-8.821-6.495-11.404-5.45-17.846-5.45-17.846z" id="d"/><filter x="-50%" y="-50%" width="200%" height="200%" filterUnits="objectBoundingBox" id="c"><feOffset dy="4" in="SourceAlpha" result="shadowOffsetOuter1"/><feGaussianBlur stdDeviation="2" in="shadowOffsetOuter1" result="shadowBlurOuter1"/><feColorMatrix values="0 0 0 0 0 0 0 0 0 0 0 0 0 0 0 0 0 0 0.08 0" in="shadowBlurOuter1"/></filter></defs><g transform="translate(-15 20)" fill="none" fill-rule="evenodd"><path fill="#FFF" d="M223 117h3v4h-3zm-201 0h3v4h-3z"/><circle fill="#F04C34" cx="124" cy="90" r="90"/><use fill="#000" filter="url(#a)" xlink:href="#b"/><use fill="#F8F8F8" xlink:href="#b"/><use fill="#000" filter="url(#c)" xlink:href="#d"/><use fill="#FFF" xlink:href="#d"/><path d="M112.13 135.66c-1.56 0-2.76.66-3.56 1.7-.68-1.1-1.88-1.7-3.28-1.7-1.3 0-2.28.46-2.96 1.22v-.92h-3.2V146h3.2v-4.92c0-1.68.76-2.54 1.92-2.54.96 0 1.7.72 1.7 1.86v5.6h3.2v-4.92c0-1.68.78-2.54 1.96-2.54.94 0 1.68.72 1.68 1.86v5.6h3.18v-6.28c0-2.44-1.7-4.06-3.84-4.06zm15.86 5.32c-.06-3.28-2.34-5.32-5.18-5.32-2.92 0-5.32 2.16-5.32 5.32 0 3.18 2.4 5.32 5.3 5.32 2.3 0 4.12-1.02 4.98-3.14l-2.84-.58c-.54.98-1.4 1.16-2.14 1.16-1.08 0-1.9-.74-2.16-1.94h7.36v-.82zm-5.18-2.72c.92 0 1.72.5 2.02 1.58h-4.14a2.2 2.2 0 0 1 2.12-1.58zm17.4-2.3h-3.2v.8c-.78-.7-1.82-1.1-3.12-1.1-2.66 0-4.9 2.16-4.9 5.32 0 3.18 2.24 5.32 4.9 5.32 1.3 0 2.34-.4 3.12-1.1v.8h3.2v-10.04zm-5.66 7.62c-1.4 0-2.42-1.04-2.42-2.6 0-1.54 1.02-2.6 2.42-2.6 1.3 0 2.46 1.06 2.46 2.6 0 1.56-1.16 2.6-2.46 2.6zm14.68-.54c-.42.24-1.02.4-1.46.4-.84 0-1.34-.42-1.34-1.46v-3.48h2.96v-2.54h-2.96V133h-3.2v2.96h-1.82v2.54h1.82v3.8c0 2.64 1.5 4 4 4 1.14 0 1.96-.32 2.74-.74l-.74-2.52z" fill="#F04C34"/></g></svg>