<svg width="220" height="235" viewBox="0 0 220 235" xmlns="http://www.w3.org/2000/svg" xmlns:xlink="http://www.w3.org/1999/xlink"><title>step3-3</title><defs><rect id="b" x="24" y="120" width="200" height="40" rx="3"/><filter x="-50%" y="-50%" width="200%" height="200%" filterUnits="objectBoundingBox" id="a"><feOffset dy="4" in="SourceAlpha" result="shadowOffsetOuter1"/><feGaussianBlur stdDeviation="4" in="shadowOffsetOuter1" result="shadowBlurOuter1"/><feColorMatrix values="0 0 0 0 0 0 0 0 0 0 0 0 0 0 0 0 0 0 0.2 0" in="shadowBlurOuter1"/></filter><path d="M143.333 70.088c-.026-.027-.056-.05-.084-.076.032-.075.054-.153.084-.228v.304zM134 61a2.667 2.667 0 1 1 0-5.334A2.667 2.667 0 0 1 134 61zm10.15-2.213a17.93 17.93 0 0 0-2.578-5.879c2.963-1.608 4.688-3.396 5.036-3.779 2.681-2.666 2.681-6.888.077-9.49a6.66 6.66 0 0 0-9.37-.047 6.662 6.662 0 0 0-6.66-6.592 6.662 6.662 0 0 0-6.659 6.585 6.664 6.664 0 0 0-9.377 9.47s.106.122.302.322a18.016 18.016 0 0 0-5.172 7.523c-1.646 2.557-4.506 6.7-8.2 10.944A20.786 20.786 0 0 0 94 75.532V95c0 1.104.9 2 2.007 2H129c2.152-3.255 3.667-7.14 3.667-11.333 0-.711-.036-1.412-.107-2.103A8.627 8.627 0 0 0 137.333 85 8.667 8.667 0 0 0 146 76.333 8.62 8.62 0 0 0 144.832 72l8.681-5.788a1.333 1.333 0 0 0-.092-2.275l-9.27-5.15z" id="d"/><filter x="-50%" y="-50%" width="200%" height="200%" filterUnits="objectBoundingBox" id="c"><feOffset dy="4" in="SourceAlpha" result="shadowOffsetOuter1"/><feGaussianBlur stdDeviation="2" in="shadowOffsetOuter1" result="shadowBlurOuter1"/><feColorMatrix values="0 0 0 0 0 0 0 0 0 0 0 0 0 0 0 0 0 0 0.09 0" in="shadowBlurOuter1"/></filter></defs><g transform="translate(-15 20)" fill="none" fill-rule="evenodd"><ellipse fill="#FFC212" cx="124" cy="90" rx="90" ry="90"/><use fill="#000" filter="url(#a)" xlink:href="#b"/><use fill="#F8F8F8" xlink:href="#b"/><use fill="#000" filter="url(#c)" xlink:href="#d"/><use fill="#FFF" xlink:href="#d"/><path d="M95.33 135.66c-1.3 0-2.34.4-3.12 1.1v-.8h-3.2v13.44h3.2v-4.2c.78.7 1.82 1.1 3.12 1.1 2.66 0 4.9-2.14 4.9-5.32 0-3.16-2.24-5.32-4.9-5.32zm-.66 7.92c-1.3 0-2.46-1.04-2.46-2.6 0-1.54 1.16-2.6 2.46-2.6 1.4 0 2.42 1.06 2.42 2.6 0 1.56-1.02 2.6-2.42 2.6zm12.12-7.88c-3.04 0-5.56 2.12-5.56 5.28 0 3.18 2.52 5.3 5.56 5.3 2.98 0 5.5-2.12 5.5-5.3 0-3.16-2.52-5.28-5.5-5.28zm0 7.88c-1.3 0-2.48-1.02-2.48-2.6 0-1.56 1.18-2.6 2.48-2.6 1.24 0 2.42 1.04 2.42 2.6 0 1.58-1.18 2.6-2.42 2.6zm17.2-7.62h-3.2v4.66c0 1.94-.82 2.8-2.08 2.8-1.02 0-1.72-.8-1.72-1.98v-5.48h-3.18v6.16c0 2.52 1.56 4.18 3.9 4.18 1.26 0 2.32-.46 3.08-1.26v.96h3.2v-10.04zm5.52 10.04v-14.4h-3.2V146h3.2zm9.02-2.96c-.42.24-1.02.4-1.46.4-.84 0-1.34-.42-1.34-1.46v-3.48h2.96v-2.54h-2.96V133h-3.2v2.96h-1.82v2.54h1.82v3.8c0 2.64 1.5 4 4 4 1.14 0 1.96-.32 2.74-.74l-.74-2.52zm8.62-7.22c-1.64 0-2.74.86-3.46 2.06v-1.92h-3.2V146h3.2v-3.14c0-2.6 1.22-3.76 3.46-3.76h.58l.14-3.2a2.74 2.74 0 0 0-.72-.08zm12.86.12h-3.44l-2.54 5.86-2.38-5.86h-3.44l4.16 9.72-1.62 3.74h3.46l5.8-13.46z" fill="#FFC212"/></g></svg>