<svg width="220" height="235" viewBox="0 0 220 235" xmlns="http://www.w3.org/2000/svg" xmlns:xlink="http://www.w3.org/1999/xlink"><title>step2-5</title><defs><linearGradient x1="50%" y1="108.061%" x2="50%" y2="26.002%" id="b"><stop stop-color="#E482EA" offset="0%"/><stop stop-color="#C54BCF" offset="100%"/></linearGradient><linearGradient x1="50%" y1="0%" x2="50%" y2="100%" id="c"><stop stop-opacity=".5" offset="0%"/><stop stop-opacity=".5" offset="100%"/></linearGradient><circle id="a" cx="90" cy="90" r="90"/></defs><g transform="translate(20 20)" fill="none" fill-rule="evenodd"><mask id="d" fill="#fff"><use xlink:href="#a"/></mask><use fill="url(#b)" xlink:href="#a"/><use fill-opacity=".4" fill="url(#c)" xlink:href="#a"/><g fill="#FFF" mask="url(#d)"><path d="M124.005 74.27a3.599 3.599 0 0 0-.274-.265c.093-.087.182-.179.264-.274.088.094.179.182.275.265a3.599 3.599 0 0 0-.265.274M127 73c-.334 0-2-.096-2-2a1 1 0 0 0-2 0c0 .334-.096 2-2 2a1 1 0 0 0 0 2c.334 0 2 .097 2 2a1 1 0 1 0 2 0c0-.334.096-2 2-2a1 1 0 1 0 0-2" opacity=".5"/><path d="M148.026 101.505a5.314 5.314 0 0 0-1.531-1.479 5.285 5.285 0 0 0 1.478-1.531 5.291 5.291 0 0 0 1.532 1.479 5.276 5.276 0 0 0-1.479 1.531M153 99c-.163 0-4-.045-4-4a1 1 0 0 0-2 0c0 .163-.046 4-4 4a1 1 0 1 0 0 2c.163 0 4 .046 4 4a1 1 0 1 0 2 0c0-.163.045-4 4-4a1 1 0 0 0 0-2m-5.495-29c-.23-.006-.505-.098-.505-.5v-.011a.5.5 0 0 0-1 .006c-.006.231-.098.505-.5.505h-.011a.5.5 0 0 0 .006 1c.231.006.505.098.505.5v.011a.5.5 0 0 0 1-.006c.006-.231.098-.505.5-.505h.011a.5.5 0 0 0-.006-1"/><path d="M54.005 98.27a3.599 3.599 0 0 0-.274-.265c.093-.087.182-.179.264-.274.088.094.179.182.275.265a3.599 3.599 0 0 0-.265.274M57 97c-.334 0-2-.096-2-2a1 1 0 0 0-2 0c0 .334-.096 2-2 2a1 1 0 0 0 0 2c.334 0 2 .097 2 2a1 1 0 1 0 2 0c0-.334.096-2 2-2a1 1 0 1 0 0-2" opacity=".5"/><path d="M30.026 125.505a5.314 5.314 0 0 0-1.531-1.479 5.285 5.285 0 0 0 1.478-1.531 5.291 5.291 0 0 0 1.532 1.479 5.276 5.276 0 0 0-1.479 1.531M35 123c-.163 0-4-.045-4-4a1 1 0 0 0-2 0c0 .163-.046 4-4 4a1 1 0 1 0 0 2c.163 0 4 .046 4 4a1 1 0 1 0 2 0c0-.163.045-4 4-4a1 1 0 0 0 0-2m-2.495-29c-.23-.006-.505-.098-.505-.5v-.011a.5.5 0 0 0-1 .006c-.006.231-.098.505-.5.505h-.011a.5.5 0 0 0 .006 1c.231.006.505.098.505.5v.011a.5.5 0 0 0 1-.006c.006-.231.098-.505.5-.505h.011a.5.5 0 0 0-.006-1"/><path d="M114.005 26.73a3.599 3.599 0 0 1-.274.265c.093.087.182.179.264.274.088-.094.179-.182.275-.265a3.599 3.599 0 0 1-.265-.274M117 28c-.334 0-2 .096-2 2a1 1 0 0 1-2 0c0-.334-.096-2-2-2a1 1 0 0 1 0-2c.334 0 2-.097 2-2a1 1 0 1 1 2 0c0 .334.096 2 2 2a1 1 0 1 1 0 2" opacity=".5"/><path d="M90.026-.505A5.314 5.314 0 0 1 88.495.974c.625.425 1.11.957 1.478 1.531a5.291 5.291 0 0 1 1.532-1.479 5.276 5.276 0 0 1-1.479-1.531M95 2c-.163 0-4 .045-4 4a1 1 0 0 1-2 0c0-.163-.046-4-4-4a1 1 0 1 1 0-2c.163 0 4-.046 4-4a1 1 0 1 1 2 0c0 .163.045 4 4 4a1 1 0 0 1 0 2m-2.495 29c-.23.006-.505.098-.505.5v.011a.5.5 0 0 1-1-.006c-.006-.231-.098-.505-.5-.505h-.011a.5.5 0 0 1 .006-1c.231-.006.505-.098.505-.5v-.011a.5.5 0 0 1 1 .006c.006.231.098.505.5.505h.011a.5.5 0 0 1-.006 1"/><path d="M105.995 145.27c.087-.094.179-.182.274-.265a3.584 3.584 0 0 1-.264-.274 3.611 3.611 0 0 1-.275.265c.094.087.182.179.265.274M103 144c.334 0 2-.096 2-2a1 1 0 0 1 2 0c0 .334.096 2 2 2a1 1 0 0 1 0 2c-.334 0-2 .097-2 2a1 1 0 1 1-2 0c0-.334-.096-2-2-2a1 1 0 1 1 0-2" opacity=".5"/><path d="M129.974 172.505a5.314 5.314 0 0 1 1.531-1.479 5.285 5.285 0 0 1-1.478-1.531 5.291 5.291 0 0 1-1.532 1.479 5.276 5.276 0 0 1 1.479 1.531M125 170c.163 0 4-.045 4-4a1 1 0 0 1 2 0c0 .163.046 4 4 4a1 1 0 1 1 0 2c-.163 0-4 .046-4 4a1 1 0 1 1-2 0c0-.163-.045-4-4-4a1 1 0 0 1 0-2m2.495-29c.23-.006.505-.098.505-.5v-.011a.5.5 0 0 1 1 .006c.006.231.098.505.5.505h.011a.5.5 0 0 1-.006 1c-.231.006-.505.098-.505.5v.011a.5.5 0 0 1-1-.006c-.006-.231-.098-.505-.5-.505h-.011a.5.5 0 0 1 .006-1"/><path d="M65.005 162.27a3.599 3.599 0 0 0-.274-.265c.093-.087.182-.179.264-.274.088.094.179.182.275.265a3.599 3.599 0 0 0-.265.274M68 161c-.334 0-2-.096-2-2a1 1 0 0 0-2 0c0 .334-.096 2-2 2a1 1 0 0 0 0 2c.334 0 2 .097 2 2a1 1 0 1 0 2 0c0-.334.096-2 2-2a1 1 0 1 0 0-2m95.005-37.73a3.599 3.599 0 0 0-.274-.265c.093-.087.182-.179.264-.274.088.094.179.182.275.265a3.599 3.599 0 0 0-.265.274M166 122c-.334 0-2-.096-2-2a1 1 0 0 0-2 0c0 .334-.096 2-2 2a1 1 0 0 0 0 2c.334 0 2 .097 2 2a1 1 0 1 0 2 0c0-.334.096-2 2-2a1 1 0 1 0 0-2m5.005-76.73a3.599 3.599 0 0 0-.274-.265c.093-.087.182-.179.264-.274.088.094.179.182.275.265a3.599 3.599 0 0 0-.265.274M174 44c-.334 0-2-.096-2-2a1 1 0 0 0-2 0c0 .334-.096 2-2 2a1 1 0 0 0 0 2c.334 0 2 .097 2 2a1 1 0 1 0 2 0c0-.334.096-2 2-2a1 1 0 1 0 0-2" opacity=".5"/><path d="M82.505 118c-.23-.006-.505-.098-.505-.5v-.011a.5.5 0 0 0-1 .006c-.006.231-.098.505-.5.505h-.011a.5.5 0 0 0 .006 1c.231.006.505.098.505.5v.011a.5.5 0 0 0 1-.006c.006-.231.098-.505.5-.505h.011a.5.5 0 0 0-.006-1"/></g></g></svg>