<svg id="Layer_1" data-name="Layer 1" xmlns="http://www.w3.org/2000/svg" viewBox="0 0 31.37 27.55"><defs><style>.cls-1,.cls-2{fill:#c14b2f}.cls-2{stroke:#fff;stroke-miterlimit:10;stroke-width:.05px}</style></defs><title>touchscreen</title><path class="cls-1" d="M14.85 8.88a5.84 5.84 0 0 0-5.64 6 6.15 6.15 0 0 0 1.65 4.23l.52-.55a5.48 5.48 0 0 1 0-7.41 4.71 4.71 0 0 1 7 0 5.39 5.39 0 0 1 1.44 3.71 5.05 5.05 0 0 1-.33 1.89l.66.31a6.1 6.1 0 0 0 .38-2.2 6.09 6.09 0 0 0-1.65-4.25 5.57 5.57 0 0 0-4.03-1.73z" transform="translate(-.29 -3.85)"/><path class="cls-1" d="M14.85 10.57a4.2 4.2 0 0 0-4 4.33 4.44 4.44 0 0 0 1.18 3l.51-.54a3.66 3.66 0 0 1-1-2.5 3.46 3.46 0 0 1 1-2.5 3.23 3.23 0 0 1 2.36-1.05 3 3 0 0 1 2.34 1.05 3.68 3.68 0 0 1 1 2.5 4.41 4.41 0 0 1-.24 1.38l.7.27a4.47 4.47 0 0 0-.87-4.7 4.11 4.11 0 0 0-2.98-1.24z" transform="translate(-.29 -3.85)"/><path class="cls-1" d="M14.85 12.28a2.3 2.3 0 0 0-1.73.75 2.75 2.75 0 0 0 0 3.68l.51-.55a1.93 1.93 0 0 1 0-2.6 1.68 1.68 0 0 1 2.45 0 2 2 0 0 1 .52 1.3 3.05 3.05 0 0 1-.14.8l.65.3a3 3 0 0 0 .24-1.1 2.64 2.64 0 0 0-.71-1.86 2.51 2.51 0 0 0-1.79-.72z" transform="translate(-.29 -3.85)"/><path class="cls-2" d="M29.29 3.88H2.55A2.29 2.29 0 0 0 .31 6.21v18.23a2.33 2.33 0 0 0 2.24 2.38h9.88a2.6 2.6 0 0 0 .74.87 1.38 1.38 0 0 1 .58 1.19v.45l-.05.06a1.16 1.16 0 0 0-.28.84v.55a5.26 5.26 0 0 1 0 .6h.72a2.06 2.06 0 0 0-.06-.7v-.5c0-.25 0-.2.1-.25s0-.09.09-.09h5.33a.17.17 0 0 1 .14 0 .34.34 0 0 1 .09.24v1.2h.71v-.45a2 2 0 0 0 .1-.69 1.37 1.37 0 0 0-.18-.75 2.85 2.85 0 0 1 .18-1c.05-.1.1-.15.15-.25a6.38 6.38 0 0 0 .61-1.39h8a2.34 2.34 0 0 0 2.3-2.36V6.27a2.45 2.45 0 0 0-2.41-2.39zm-7.83 19.23V21a1.31 1.31 0 0 0-1.26-1.3 1.29 1.29 0 0 0-.57.16 1.25 1.25 0 0 0-1.19-.92 1.52 1.52 0 0 0-.72.25 1.31 1.31 0 0 0-1-.66 2.36 2.36 0 0 0-.53.1v-1.26a1.28 1.28 0 0 0-1.23-1.29 1.15 1.15 0 0 0-1.14 1.17v4.5a.9.9 0 0 0-.53-.1A1.29 1.29 0 0 0 12 23v.49H3.61V7.26H27v16.18h-5.54zm-.76 3.14a5.27 5.27 0 0 1-.62 1.6 1.28 1.28 0 0 1-.15.25 4.17 4.17 0 0 0-.28.91h-5.16v-.2a2.19 2.19 0 0 0-.88-1.81 2.19 2.19 0 0 1-.88-1.7V23a.54.54 0 0 1 .53-.55.55.55 0 0 1 .53.55v1.39h.71v-7a.54.54 0 0 1 .53-.55.54.54 0 0 1 .52.55v5.38h.72v-2.91a.53.53 0 1 1 1-.14.33.33 0 0 1 0 .14v2.75H18v-2.36a.54.54 0 0 1 .46-.61.53.53 0 0 1 .59.47v3.13h.72V21.1a.54.54 0 0 1 .59-.48.55.55 0 0 1 .46.48v2.14c-.1 0 0 2.09-.15 3zm10.17-1.83a1.63 1.63 0 0 1-1.58 1.64h-7.83v-1.89h6.22V6.51H2.89v17.67h9.17v1.25a2.08 2.08 0 0 0 .09.6H2.62a1.59 1.59 0 0 1-1.53-1.64V6.27a1.58 1.58 0 0 1 1.53-1.6h26.72a1.62 1.62 0 0 1 1.58 1.6v18.17z" transform="translate(-.29 -3.85)"/><path class="cls-1" d="M29.28 14.53a1.21 1.21 0 1 0 1.13 1.21 1.18 1.18 0 0 0-1.13-1.21zm0 1.6a.45.45 0 1 1 .42-.45.44.44 0 0 1-.42.45z" transform="translate(-.29 -3.85)"/></svg>